<svg width="464" height="463" viewBox="0 0 464 463" fill="none" xmlns="http://www.w3.org/2000/svg">
<path fill-rule="evenodd" clip-rule="evenodd" d="M359.891 1.26788C351.07 3.22888 346.917 4.78388 338.001 9.46488C316.075 20.9759 301.75 38.8599 294.674 63.5519C291.721 73.8589 291.511 95.6339 294.261 106.341C296.758 116.062 304.756 132.132 310.81 139.591L315.883 145.841L217.137 145.793L118.391 145.745L114.891 140.191C107.543 128.529 92.9712 117.662 77.2902 112.15C69.5222 109.42 68.9422 109.368 42.3912 109.047C15.5542 108.722 15.3642 108.734 10.8912 111.107C8.41615 112.42 5.04815 115.401 3.40715 117.731C0.895154 121.298 0.365153 123.118 0.0551527 129.257C-0.448847 139.241 2.47515 145.055 9.90915 148.849C12.9222 150.387 16.7272 150.695 36.4092 150.993L59.3912 151.341L65.8912 154.464C72.8652 157.815 77.7282 162.057 81.5832 168.152C84.4312 172.655 124.891 310.452 124.891 315.648C124.891 320.385 122.067 323.85 113.069 330.155C95.8991 342.187 87.9792 356.112 87.9152 374.381C87.8862 382.818 89.9242 391.19 93.9202 399.055C96.6932 404.512 96.8012 405.161 95.7512 410.06C91.5102 429.835 101.857 450.246 120.632 459.14C126.962 462.138 128.089 462.341 138.391 462.341C148.693 462.341 149.82 462.138 156.15 459.14C165.259 454.825 173.02 447.306 177.397 438.555C179.319 434.715 180.891 430.508 180.891 429.207V426.841H216.312H251.732L252.435 430.091C253.445 434.765 257.576 442.661 261.61 447.632C271.709 460.076 289.856 465.605 306.431 461.289C336.701 453.407 348.383 415.673 328.184 391.023C313.991 373.702 285.636 370.786 267.911 384.825L264.103 387.841H216.744H169.385L164.631 384.461C156.392 378.603 150.381 376.532 140.22 376.047C131.79 375.645 131.005 375.432 130.499 373.414C129.755 370.452 131.493 364.511 133.683 362.529C139.017 357.702 135.607 357.841 248.609 357.835C317.677 357.832 355.67 357.475 358.077 356.806C361.748 355.787 366.373 351.335 367.88 347.37C368.512 345.708 370.149 345.032 375.967 344.035C393.584 341.014 408.354 328.583 414.802 311.349C417.784 303.38 448.892 166.772 448.887 161.666C448.883 156.578 446.162 151.584 442.021 149.066L439.132 147.309L445.019 140.015C457.423 124.644 463.885 106.07 463.867 85.8409C463.844 61.0719 455.991 41.8299 438.946 24.7859C426.648 12.4869 412.569 4.78988 395.915 1.25888C387.979 -0.424119 367.479 -0.418118 359.891 1.26788ZM360.121 16.7999C347.923 20.0899 337.481 26.1809 328.391 35.3079C323.991 39.7259 318.692 46.2659 316.615 49.8409C305.008 69.8239 303.935 94.6779 313.79 115.341C321.521 131.553 331.351 141.497 347.391 149.335C383.449 166.954 425.331 151.807 442.822 114.823C447.599 104.723 449.214 95.5959 448.631 82.0019C448.241 72.9219 447.556 68.7149 445.537 62.9939C438.023 41.7039 422.073 25.7489 400.738 18.1819C390.495 14.5489 370.936 13.8829 360.121 16.7999ZM336.625 42.8349C334.548 44.4689 333.891 45.8539 333.891 48.5969C333.891 51.9299 335.178 53.5029 350.616 69.0379L367.341 85.8679L350.616 102.615C335.871 117.379 333.891 119.746 333.891 122.602C333.891 126.811 336.921 129.841 341.13 129.841C343.986 129.841 346.353 127.861 361.117 113.116L377.864 96.3909L394.694 113.116C410.084 128.409 411.826 129.841 415.053 129.841C419.541 129.841 422.291 126.958 422.291 122.252C422.291 119.073 420.805 117.275 405.591 102.041L388.89 85.3189L405.402 68.8299C414.484 59.7609 422.175 51.5199 422.494 50.5169C423.965 45.8829 417.849 39.7669 413.215 41.2379C412.212 41.5569 403.971 49.2479 394.902 58.3299L378.413 74.8419L361.902 58.3609C343.819 40.3119 341.581 38.9369 336.625 42.8349ZM16.6982 125.591C14.1602 128.546 13.7562 130.986 15.3912 133.482C16.9152 135.807 17.1821 135.841 34.1642 135.872C56.8412 135.913 64.5301 136.973 73.6891 141.322C82.6671 145.586 91.4312 153.996 95.6562 162.4C98.5252 168.11 137.769 300.556 139.829 311.486C141.383 319.727 139.522 327.17 134.524 332.702C133.351 334 127.961 338.213 122.547 342.064C111.514 349.91 106.031 356.921 103.864 365.953C102.462 371.797 103.023 383.018 104.92 387.076L106.199 389.812L110.368 385.969C112.661 383.855 115.034 381.949 115.64 381.733C116.414 381.458 116.463 379.864 115.806 376.373C113.406 363.636 119.52 351.71 131.496 345.769L136.391 343.341L244.672 343.069L352.954 342.798L354.101 340.279C354.878 338.574 354.941 336.885 354.296 335.051L353.343 332.341L265.367 331.841L177.391 331.341L172.328 328.669C166.53 325.609 160.958 319.853 157.799 313.66C156.6 311.311 151.39 296.103 146.22 279.865C141.05 263.627 133.934 241.341 130.406 230.341C126.878 219.341 120.173 198.305 115.506 183.595C110.839 168.885 105.754 154.503 104.206 151.636C98.3542 140.797 86.0072 131.216 71.7052 126.415C64.3562 123.948 63.0891 123.841 41.1201 123.841C20.5321 123.841 18.0482 124.019 16.6982 125.591ZM422.891 160.582C422.066 160.829 417.791 162.528 413.391 164.358C408.991 166.188 403.591 168.164 401.391 168.748L397.391 169.811L392.976 185.076C390.548 193.472 388.362 200.904 388.119 201.591C387.776 202.562 391.822 202.841 406.245 202.841H424.814L425.811 199.091C429.422 185.506 434.023 162.585 433.276 161.903C432.177 160.899 424.922 159.976 422.891 160.582ZM128.505 174.591C130.935 182.154 133.906 191.603 135.107 195.591L137.292 202.841H161.544H185.795L184.363 198.091C183.575 195.478 180.784 186.029 178.16 177.092L173.391 160.844L148.739 160.842L124.087 160.841L128.505 174.591ZM193.451 175.591C195.849 183.704 198.635 193.041 199.642 196.341L201.473 202.341L238.682 202.603L275.891 202.865V181.853V160.841H232.491H189.09L193.451 175.591ZM290.891 181.852V202.863L331.497 202.602L372.104 202.341L376.463 187.841C378.86 179.866 380.838 173.07 380.857 172.74C380.875 172.409 377.071 171.868 372.402 171.539C361.523 170.771 352.287 168.473 343 164.223L335.609 160.841H313.25H290.891V181.852ZM142.914 219.091C142.926 219.779 146.265 230.691 150.333 243.341L157.729 266.341L181.4 266.609C200.183 266.822 204.974 266.616 204.606 265.609C204.351 264.912 201.048 253.881 197.266 241.097L190.391 217.854L166.641 217.847C148.292 217.842 142.896 218.125 142.914 219.091ZM207.416 222.591C208.196 225.204 211.465 236.116 214.68 246.841L220.526 266.341L248.208 266.607L275.891 266.873V242.357V217.841H240.945H205.999L207.416 222.591ZM290.891 242.341V266.841H321.811H352.73L354.261 262.091C357.364 252.462 366.891 219.858 366.891 218.866C366.891 218.184 354.172 217.841 328.891 217.841H290.891V242.341ZM376.51 240.591C372.8 253.103 369.537 264.129 369.26 265.091C368.792 266.718 370.222 266.841 389.574 266.839L410.391 266.836L415.97 242.339L421.549 217.841H402.403H383.256L376.51 240.591ZM163.533 284.591C165.36 291.98 171.003 307.189 172.911 309.869C174.093 311.528 176.823 313.786 178.979 314.886C182.544 316.704 184.556 316.861 201.254 316.613L219.611 316.341L214.501 299.097L209.391 281.854L186.122 281.847L162.853 281.841L163.533 284.591ZM229.532 296.591C231.959 304.704 234.213 312.579 234.542 314.091L235.141 316.841H255.516H275.891V299.341V281.841H250.506H225.121L229.532 296.591ZM290.891 299.359V316.877L314.521 316.609L338.151 316.341L342.495 301.841C344.885 293.866 347.112 286.103 347.445 284.591L348.05 281.841H319.47H290.891V299.359ZM359.072 299.007C356.271 308.448 354.21 316.548 354.494 317.007C354.777 317.466 355.77 317.843 356.7 317.845C359.863 317.852 364.804 321.75 366.93 325.917C369.014 330.002 369.118 330.06 373.178 329.411C379.641 328.378 385.383 325.397 390.962 320.178C397.337 314.215 400.947 307.112 403.84 294.841C405.072 289.616 406.292 284.553 406.553 283.591C406.993 281.964 405.519 281.841 385.596 281.841H364.166L359.072 299.007ZM129.594 392.283C112.55 398.363 105.116 415.966 112.962 431.667C120.162 446.075 136.641 451.804 150.691 444.783C160.65 439.806 165.862 431.916 166.676 420.586C167.113 414.491 166.85 413.2 163.984 407.378C158.674 396.592 149.692 390.788 138.463 390.885C135.673 390.909 131.682 391.538 129.594 392.283ZM284.344 392.826C281.569 393.928 277.343 396.744 274.954 399.085C268.885 405.031 266.511 410.707 266.481 419.341C266.451 428.216 269.127 434.069 276.067 440.309C287.216 450.333 302.58 450.321 313.749 440.278C328.643 426.888 325.379 402.922 307.391 393.598C301.571 390.582 290.9 390.224 284.344 392.826ZM130.391 401.229C126.007 403.142 120.116 410.123 119.324 414.344C117.497 424.087 121.37 432.227 129.911 436.591C149.608 446.655 167.746 420.507 151.719 405.152C149.889 403.399 147.124 401.486 145.576 400.902C141.762 399.464 134.054 399.63 130.391 401.229ZM286.898 401.434C279.404 404.684 275.612 410.475 275.499 418.841C275.405 425.881 278.159 431.345 283.816 435.341C287.52 437.957 288.925 438.341 294.8 438.341C300.476 438.341 302.192 437.908 305.694 435.59C315.689 428.975 317.021 412.596 308.211 404.629C303.114 400.02 293.487 398.577 286.898 401.434ZM180.357 407.091L181.611 411.341L216.64 411.604L251.668 411.866L252.327 409.104C252.689 407.584 253.22 405.553 253.506 404.591C253.995 402.946 251.773 402.841 216.564 402.841H179.102L180.357 407.091ZM134.902 416.328C131.767 420.105 137.627 425.965 141.404 422.83C143.195 421.344 143.349 417.699 141.691 416.041C140.033 414.383 136.388 414.537 134.902 416.328ZM291.546 416.67C289.406 419.034 289.46 420.141 291.817 422.274C294.165 424.399 296.696 424.028 298.508 421.295C299.664 419.551 299.636 418.922 298.321 417.045C296.443 414.363 293.767 414.215 291.546 416.67Z" fill="#B1B1B1"/>
</svg>
