<svg width="100" height="40" viewBox="0 0 100 40" fill="none" xmlns="http://www.w3.org/2000/svg">
<path d="M20.2233 38.545C18.8933 38.545 17.75 38.265 16.7933 37.705C15.86 37.145 15.3933 36.3283 15.3933 35.255C15.3933 34.6483 15.5567 34.1117 15.8833 33.645C16.2333 33.2017 16.77 32.8633 17.4933 32.63C17.4 32.98 17.33 33.3183 17.2833 33.645C17.2367 33.9717 17.2133 34.2633 17.2133 34.52C17.2133 35.4767 17.47 36.235 17.9833 36.795C18.4967 37.3783 19.255 37.67 20.2583 37.67C21.1917 37.67 22.02 37.4367 22.7433 36.97C23.49 36.5033 24.1317 35.885 24.6683 35.115C25.205 34.3683 25.66 33.5517 26.0333 32.665C26.4067 31.7783 26.7217 30.9033 26.9783 30.04C27.235 29.1767 27.4333 28.4183 27.5733 27.765C27.76 26.9717 27.97 25.945 28.2033 24.685C28.46 23.4017 28.74 22.0367 29.0433 20.59C28.11 22.3633 27.025 23.8333 25.7883 25C24.575 26.1433 23.1283 26.715 21.4483 26.715C20.0717 26.715 19.0917 26.33 18.5083 25.56C17.925 24.7667 17.6333 23.7633 17.6333 22.55C17.6333 21.64 17.75 20.6483 17.9833 19.575C18.24 18.5017 18.52 17.4283 18.8233 16.355C19.1267 15.2583 19.395 14.2083 19.6283 13.205C19.885 12.2017 20.0133 11.3033 20.0133 10.51C20.0133 9.76333 19.8617 9.12167 19.5583 8.585C19.2783 8.04833 18.765 7.78 18.0183 7.78C17.365 7.78 16.805 7.99 16.3383 8.41C15.8717 8.80667 15.475 9.32 15.1483 9.95C14.845 10.58 14.6117 11.245 14.4483 11.945C14.3083 12.6217 14.2383 13.2517 14.2383 13.835C14.2383 14.1617 14.2617 14.4767 14.3083 14.78C14.355 15.0833 14.425 15.34 14.5183 15.55C13.6317 15.55 13.0017 15.3167 12.6283 14.85C12.2783 14.36 12.1033 13.7883 12.1033 13.135C12.1033 12.4117 12.2783 11.6767 12.6283 10.93C12.9783 10.1833 13.4567 9.50667 14.0633 8.9C14.6933 8.27 15.405 7.76833 16.1983 7.395C17.015 6.99833 17.8783 6.8 18.7883 6.8C19.675 6.8 20.3867 6.98667 20.9233 7.36C21.46 7.71 21.845 8.15333 22.0783 8.69C22.3117 9.22667 22.4283 9.775 22.4283 10.335C22.4283 10.9883 22.3 11.805 22.0433 12.785C21.81 13.7417 21.5417 14.7567 21.2383 15.83C20.935 16.88 20.6667 17.93 20.4333 18.98C20.2 20.03 20.0833 21.0217 20.0833 21.955C20.0833 22.9583 20.27 23.775 20.6433 24.405C21.04 25.0117 21.67 25.315 22.5333 25.315C23.35 25.315 24.12 25.0583 24.8433 24.545C25.5667 24.0317 26.2433 23.3433 26.8733 22.48C27.5033 21.6167 28.075 20.6717 28.5883 19.645C29.1017 18.6183 29.5567 17.6033 29.9533 16.6C30.2567 15.34 30.5717 14.1267 30.8983 12.96C31.2483 11.77 31.5983 10.72 31.9483 9.81C32.2983 8.87667 32.66 8.14167 33.0333 7.605C33.4067 7.06833 33.78 6.8 34.1533 6.8C34.3867 6.8 34.69 6.905 35.0633 7.115C35.4367 7.30167 35.7867 7.57 36.1133 7.92C35.6233 8.69 35.2033 9.425 34.8533 10.125C34.5033 10.8017 34.165 11.5483 33.8383 12.365C33.535 13.1817 33.22 14.15 32.8933 15.27C32.5667 16.3667 32.1933 17.72 31.7733 19.33C31.3767 20.94 30.8983 22.9 30.3383 25.21C30.035 26.4 29.7083 27.625 29.3583 28.885C29.0083 30.145 28.5767 31.3467 28.0633 32.49C27.5733 33.6333 26.9783 34.66 26.2783 35.57C25.5783 36.48 24.7267 37.2033 23.7233 37.74C22.7433 38.2767 21.5767 38.545 20.2233 38.545ZM38.1978 33.05C37.4044 33.05 36.7628 32.7 36.2728 32C35.8061 31.2767 35.5728 30.4483 35.5728 29.515C35.5728 28.8383 35.6778 28.0567 35.8878 27.17C36.1211 26.2833 36.4011 25.4083 36.7278 24.545C37.0544 23.6817 37.3928 22.97 37.7428 22.41C38.0928 21.85 38.3961 21.57 38.6528 21.57C38.7694 21.57 38.9678 21.64 39.2478 21.78C39.5278 21.8967 39.7611 22.06 39.9478 22.27C39.6911 22.6667 39.3761 23.2733 39.0028 24.09C38.6294 24.9067 38.3028 25.7817 38.0228 26.715C37.7428 27.6483 37.6028 28.5117 37.6028 29.305C37.6028 29.4917 37.6261 29.7833 37.6728 30.18C37.7194 30.5533 37.8361 30.8917 38.0228 31.195C38.2094 31.4983 38.4894 31.65 38.8628 31.65C39.3061 31.65 39.7611 31.4283 40.2278 30.985C40.6944 30.5183 41.1611 29.9233 41.6278 29.2C42.1178 28.4767 42.5844 27.695 43.0278 26.855C43.4711 26.015 43.8794 25.21 44.2528 24.44C44.6494 23.67 44.9761 23.0283 45.2328 22.515C45.3728 22.5383 45.5711 22.585 45.8278 22.655C46.1078 22.725 46.3528 22.8183 46.5628 22.935C46.7961 23.0517 46.9128 23.215 46.9128 23.425C46.9128 23.5183 46.7961 23.8333 46.5628 24.37C46.3294 24.8833 46.0494 25.525 45.7228 26.295C45.4194 27.0417 45.1511 27.8 44.9178 28.57C44.6844 29.34 44.5678 30.0167 44.5678 30.6C44.5678 31.02 44.6494 31.3583 44.8128 31.615C44.9994 31.8717 45.3028 32 45.7228 32C46.2128 32 46.8078 31.7783 47.5078 31.335C48.2078 30.8917 48.9194 30.25 49.6428 29.41C50.3661 28.5467 51.0078 27.52 51.5678 26.33L52.0228 26.645C51.5328 27.905 50.8911 29.025 50.0978 30.005C49.3044 30.9617 48.4644 31.7083 47.5778 32.245C46.6911 32.7817 45.8278 33.05 44.9878 33.05C44.3811 33.05 43.8911 32.9333 43.5178 32.7C43.1678 32.4667 42.9111 32.1517 42.7478 31.755C42.6078 31.3583 42.5378 30.9267 42.5378 30.46C42.5378 30.18 42.5611 29.9 42.6078 29.62C42.6544 29.3167 42.7128 29.0133 42.7828 28.71C42.3628 29.48 41.9078 30.2033 41.4178 30.88C40.9278 31.5333 40.4144 32.0583 39.8778 32.455C39.3411 32.8517 38.7811 33.05 38.1978 33.05ZM70.3094 33.085C69.4928 33.085 68.8978 32.8283 68.5244 32.315C68.1511 31.825 67.9644 31.23 67.9644 30.53C67.9644 29.9467 68.0461 29.3633 68.2094 28.78C68.3961 28.1967 68.5711 27.625 68.7344 27.065C68.9211 26.505 69.0144 26.0033 69.0144 25.56C69.0144 25.0933 68.9094 24.7667 68.6994 24.58C68.4894 24.3933 68.2561 24.3 67.9994 24.3C67.4161 24.3 66.7744 24.755 66.0744 25.665C65.3978 26.575 64.5111 27.8583 63.4144 29.515C63.0411 30.075 62.7261 30.6467 62.4694 31.23C62.2128 31.79 61.9678 32.3033 61.7344 32.77C61.5478 32.77 61.3144 32.7467 61.0344 32.7C60.7544 32.6533 60.4978 32.5717 60.2644 32.455C60.0544 32.3617 59.9494 32.2333 59.9494 32.07C59.9494 31.9067 60.0544 31.5217 60.2644 30.915C60.4978 30.285 60.7544 29.5617 61.0344 28.745C61.3378 27.905 61.5944 27.065 61.8044 26.225C62.0378 25.3617 62.1544 24.6267 62.1544 24.02C62.1544 23.6233 62.0844 23.3083 61.9444 23.075C61.8278 22.8183 61.6061 22.69 61.2794 22.69C60.7661 22.69 60.1478 23.005 59.4244 23.635C58.7011 24.2417 57.9544 25.0467 57.1844 26.05C56.4144 27.0533 55.6794 28.1617 54.9794 29.375C54.3028 30.565 53.7544 31.755 53.3344 32.945C53.1244 32.945 52.8678 32.91 52.5644 32.84C52.2611 32.77 52.0044 32.6767 51.7944 32.56C51.5611 32.4433 51.4444 32.3267 51.4444 32.21C51.4444 32.07 51.5728 31.6617 51.8294 30.985C52.0628 30.285 52.3428 29.4567 52.6694 28.5C52.9728 27.52 53.2411 26.5283 53.4744 25.525C53.7311 24.5217 53.8594 23.635 53.8594 22.865C53.9994 22.7017 54.2211 22.5383 54.5244 22.375C54.8278 22.2117 55.1428 22.13 55.4694 22.13C55.7961 22.13 56.0294 22.2117 56.1694 22.375C56.3328 22.5383 56.4144 22.76 56.4144 23.04C56.4144 23.3433 56.3211 23.8683 56.1344 24.615C55.9711 25.3383 55.7611 26.1433 55.5044 27.03C55.9711 26.2833 56.4961 25.525 57.0794 24.755C57.6861 23.9617 58.3161 23.2383 58.9694 22.585C59.6228 21.9317 60.2761 21.4067 60.9294 21.01C61.6061 20.59 62.2594 20.38 62.8894 20.38C63.6128 20.38 64.1028 20.6483 64.3594 21.185C64.6394 21.6983 64.7794 22.3167 64.7794 23.04C64.7794 23.6233 64.7094 24.2417 64.5694 24.895C64.4528 25.525 64.3128 26.12 64.1494 26.68C63.9861 27.2167 63.8344 27.6483 63.6944 27.975C64.1844 27.0883 64.7211 26.2367 65.3044 25.42C65.9111 24.58 66.5644 23.9033 67.2644 23.39C67.9644 22.8533 68.7111 22.585 69.5044 22.585C70.2511 22.585 70.7644 22.8067 71.0444 23.25C71.3478 23.6933 71.4994 24.2183 71.4994 24.825C71.4994 25.4317 71.3944 26.0967 71.1844 26.82C70.9744 27.5433 70.7528 28.2433 70.5194 28.92C70.3094 29.5967 70.2044 30.18 70.2044 30.67C70.2044 30.9733 70.2744 31.2533 70.4144 31.51C70.5778 31.7433 70.8578 31.86 71.2544 31.86C71.9078 31.86 72.5144 31.5683 73.0744 30.985C73.6578 30.3783 74.1944 29.655 74.6844 28.815C75.1744 27.9517 75.5944 27.1233 75.9444 26.33L76.3644 26.82C75.9911 27.8 75.5128 28.78 74.9294 29.76C74.3461 30.7167 73.6578 31.51 72.8644 32.14C72.0944 32.77 71.2428 33.085 70.3094 33.085ZM80.8264 33.54C79.4031 33.54 78.3297 33.1433 77.6064 32.35C76.9064 31.58 76.5564 30.6233 76.5564 29.48C76.5564 28.43 76.8131 27.3217 77.3264 26.155C77.8631 24.9883 78.5631 23.8917 79.4264 22.865C80.3131 21.8383 81.2814 21.01 82.3314 20.38C83.3814 19.7267 84.4197 19.4 85.4464 19.4C85.9831 19.4 86.4731 19.54 86.9164 19.82C87.3831 20.1 87.6164 20.6717 87.6164 21.535C87.6164 22.4217 87.3481 23.2617 86.8114 24.055C86.2981 24.825 85.6097 25.5133 84.7464 26.12C83.9064 26.7267 82.9731 27.2283 81.9464 27.625C80.9431 27.9983 79.9397 28.2317 78.9364 28.325C78.8897 28.5583 78.8547 28.78 78.8314 28.99C78.8081 29.2 78.7964 29.3983 78.7964 29.585C78.7964 29.935 78.8314 30.285 78.9014 30.635C78.9947 30.985 79.1464 31.3117 79.3564 31.615C79.5664 31.895 79.8464 32.1167 80.1964 32.28C80.5697 32.4433 81.0247 32.525 81.5614 32.525C82.5647 32.525 83.5564 32.245 84.5364 31.685C85.5164 31.1017 86.4264 30.3433 87.2664 29.41C88.1064 28.4767 88.8181 27.45 89.4014 26.33L89.8214 26.645C89.1914 28.045 88.3864 29.2583 87.4064 30.285C86.4497 31.3117 85.3997 32.105 84.2564 32.665C83.1364 33.2483 81.9931 33.54 80.8264 33.54ZM79.1114 27.66C79.7414 27.45 80.4531 27.1467 81.2464 26.75C82.0397 26.33 82.7981 25.84 83.5214 25.28C84.2681 24.72 84.8747 24.1017 85.3414 23.425C85.8314 22.7483 86.0764 22.0367 86.0764 21.29C86.0764 21.0333 86.0297 20.835 85.9364 20.695C85.8431 20.555 85.6447 20.485 85.3414 20.485C84.7814 20.485 84.1864 20.7067 83.5564 21.15C82.9264 21.57 82.3197 22.13 81.7364 22.83C81.1531 23.53 80.6281 24.3 80.1614 25.14C79.6947 25.98 79.3447 26.82 79.1114 27.66Z" fill="white"/>
<path d="M40.1995 40V34.4H42.4795C43.0768 34.4 43.5995 34.52 44.0475 34.76C44.5008 34.9947 44.8528 35.3227 45.1035 35.744C45.3542 36.1653 45.4795 36.6507 45.4795 37.2C45.4795 37.7493 45.3542 38.2347 45.1035 38.656C44.8528 39.0773 44.5008 39.408 44.0475 39.648C43.5995 39.8827 43.0768 40 42.4795 40H40.1995ZM40.7915 39.488H42.4475C42.9435 39.488 43.3728 39.392 43.7355 39.2C44.1035 39.0027 44.3888 38.7333 44.5915 38.392C44.7942 38.0453 44.8955 37.648 44.8955 37.2C44.8955 36.7467 44.7942 36.3493 44.5915 36.008C44.3888 35.6667 44.1035 35.4 43.7355 35.208C43.3728 35.0107 42.9435 34.912 42.4475 34.912H40.7915V39.488ZM47.7369 36.904H50.6969V37.408H47.7369V36.904ZM47.8009 39.488H51.1689V40H47.2089V34.4H51.0489V34.912H47.8009V39.488ZM52.9604 40V34.4H53.5524V39.488H56.6884V40H52.9604ZM58.0714 40V34.4H58.6634V40H58.0714ZM62.4149 40L59.9349 34.4H60.5749L62.8949 39.672H62.5429L64.8789 34.4H65.4789L62.9989 40H62.4149ZM67.2197 36.904H70.1797V37.408H67.2197V36.904ZM67.2837 39.488H70.6517V40H66.6917V34.4H70.5317V34.912H67.2837V39.488ZM72.4433 40V34.4H74.5393C75.0139 34.4 75.4219 34.4773 75.7633 34.632C76.1046 34.7813 76.3659 35 76.5473 35.288C76.7339 35.5707 76.8273 35.9147 76.8273 36.32C76.8273 36.7147 76.7339 37.056 76.5473 37.344C76.3659 37.6267 76.1046 37.8453 75.7633 38C75.4219 38.1493 75.0139 38.224 74.5393 38.224H72.7713L73.0353 37.952V40H72.4433ZM76.2673 40L74.8273 37.968H75.4673L76.9153 40H76.2673ZM73.0353 38L72.7713 37.72H74.5233C75.0833 37.72 75.5073 37.5973 75.7953 37.352C76.0886 37.1067 76.2352 36.7627 76.2352 36.32C76.2352 35.872 76.0886 35.5253 75.7953 35.28C75.5073 35.0347 75.0833 34.912 74.5233 34.912H72.7713L73.0353 34.632V38ZM79.8824 40V37.92L80.0184 38.288L77.6424 34.4H78.2744L80.3624 37.816H80.0264L82.1144 34.4H82.7064L80.3304 38.288L80.4664 37.92V40H79.8824Z" fill="white"/>
</svg>
