<svg width="100" height="40" viewBox="0 0 100 40" fill="none" xmlns="http://www.w3.org/2000/svg">
<path d="M20.2233 38.5448C18.8933 38.5448 17.75 38.2648 16.7933 37.7048C15.86 37.1448 15.3933 36.3281 15.3933 35.2548C15.3933 34.6481 15.5567 34.1115 15.8833 33.6448C16.2333 33.2015 16.77 32.8631 17.4933 32.6298C17.4 32.9798 17.33 33.3181 17.2833 33.6448C17.2367 33.9715 17.2133 34.2631 17.2133 34.5198C17.2133 35.4765 17.47 36.2348 17.9833 36.7948C18.4967 37.3781 19.255 37.6698 20.2583 37.6698C21.1917 37.6698 22.02 37.4365 22.7433 36.9698C23.49 36.5031 24.1317 35.8848 24.6683 35.1148C25.205 34.3681 25.66 33.5515 26.0333 32.6648C26.4067 31.7781 26.7217 30.9031 26.9783 30.0398C27.235 29.1765 27.4333 28.4181 27.5733 27.7648C27.76 26.9715 27.97 25.9448 28.2033 24.6848C28.46 23.4015 28.74 22.0365 29.0433 20.5898C28.11 22.3631 27.025 23.8331 25.7883 24.9998C24.575 26.1431 23.1283 26.7148 21.4483 26.7148C20.0717 26.7148 19.0917 26.3298 18.5083 25.5598C17.925 24.7665 17.6333 23.7631 17.6333 22.5498C17.6333 21.6398 17.75 20.6481 17.9833 19.5748C18.24 18.5015 18.52 17.4281 18.8233 16.3548C19.1267 15.2581 19.395 14.2081 19.6283 13.2048C19.885 12.2015 20.0133 11.3031 20.0133 10.5098C20.0133 9.76313 19.8617 9.12147 19.5583 8.5848C19.2783 8.04813 18.765 7.7798 18.0183 7.7798C17.365 7.7798 16.805 7.9898 16.3383 8.4098C15.8717 8.80647 15.475 9.3198 15.1483 9.9498C14.845 10.5798 14.6117 11.2448 14.4483 11.9448C14.3083 12.6215 14.2383 13.2515 14.2383 13.8348C14.2383 14.1615 14.2617 14.4765 14.3083 14.7798C14.355 15.0831 14.425 15.3398 14.5183 15.5498C13.6317 15.5498 13.0017 15.3165 12.6283 14.8498C12.2783 14.3598 12.1033 13.7881 12.1033 13.1348C12.1033 12.4115 12.2783 11.6765 12.6283 10.9298C12.9783 10.1831 13.4567 9.50647 14.0633 8.8998C14.6933 8.2698 15.405 7.76813 16.1983 7.3948C17.015 6.99813 17.8783 6.7998 18.7883 6.7998C19.675 6.7998 20.3867 6.98647 20.9233 7.3598C21.46 7.7098 21.845 8.15313 22.0783 8.6898C22.3117 9.22647 22.4283 9.7748 22.4283 10.3348C22.4283 10.9881 22.3 11.8048 22.0433 12.7848C21.81 13.7415 21.5417 14.7565 21.2383 15.8298C20.935 16.8798 20.6667 17.9298 20.4333 18.9798C20.2 20.0298 20.0833 21.0215 20.0833 21.9548C20.0833 22.9581 20.27 23.7748 20.6433 24.4048C21.04 25.0115 21.67 25.3148 22.5333 25.3148C23.35 25.3148 24.12 25.0581 24.8433 24.5448C25.5667 24.0315 26.2433 23.3431 26.8733 22.4798C27.5033 21.6165 28.075 20.6715 28.5883 19.6448C29.1017 18.6181 29.5567 17.6031 29.9533 16.5998C30.2567 15.3398 30.5717 14.1265 30.8983 12.9598C31.2483 11.7698 31.5983 10.7198 31.9483 9.8098C32.2983 8.87647 32.66 8.14147 33.0333 7.6048C33.4067 7.06813 33.78 6.7998 34.1533 6.7998C34.3867 6.7998 34.69 6.9048 35.0633 7.1148C35.4367 7.30147 35.7867 7.5698 36.1133 7.9198C35.6233 8.6898 35.2033 9.4248 34.8533 10.1248C34.5033 10.8015 34.165 11.5481 33.8383 12.3648C33.535 13.1815 33.22 14.1498 32.8933 15.2698C32.5667 16.3665 32.1933 17.7198 31.7733 19.3298C31.3767 20.9398 30.8983 22.8998 30.3383 25.2098C30.035 26.3998 29.7083 27.6248 29.3583 28.8848C29.0083 30.1448 28.5767 31.3465 28.0633 32.4898C27.5733 33.6331 26.9783 34.6598 26.2783 35.5698C25.5783 36.4798 24.7267 37.2031 23.7233 37.7398C22.7433 38.2765 21.5767 38.5448 20.2233 38.5448ZM38.1978 33.0498C37.4044 33.0498 36.7628 32.6998 36.2728 31.9998C35.8061 31.2765 35.5728 30.4481 35.5728 29.5148C35.5728 28.8381 35.6778 28.0565 35.8878 27.1698C36.1211 26.2831 36.4011 25.4081 36.7278 24.5448C37.0544 23.6815 37.3928 22.9698 37.7428 22.4098C38.0928 21.8498 38.3961 21.5698 38.6528 21.5698C38.7694 21.5698 38.9678 21.6398 39.2478 21.7798C39.5278 21.8965 39.7611 22.0598 39.9478 22.2698C39.6911 22.6665 39.3761 23.2731 39.0028 24.0898C38.6294 24.9065 38.3028 25.7815 38.0228 26.7148C37.7428 27.6481 37.6028 28.5115 37.6028 29.3048C37.6028 29.4915 37.6261 29.7831 37.6728 30.1798C37.7194 30.5531 37.8361 30.8915 38.0228 31.1948C38.2094 31.4981 38.4894 31.6498 38.8628 31.6498C39.3061 31.6498 39.7611 31.4281 40.2278 30.9848C40.6944 30.5181 41.1611 29.9231 41.6278 29.1998C42.1178 28.4765 42.5844 27.6948 43.0278 26.8548C43.4711 26.0148 43.8794 25.2098 44.2528 24.4398C44.6494 23.6698 44.9761 23.0281 45.2328 22.5148C45.3728 22.5381 45.5711 22.5848 45.8278 22.6548C46.1078 22.7248 46.3528 22.8181 46.5628 22.9348C46.7961 23.0515 46.9128 23.2148 46.9128 23.4248C46.9128 23.5181 46.7961 23.8331 46.5628 24.3698C46.3294 24.8831 46.0494 25.5248 45.7228 26.2948C45.4194 27.0415 45.1511 27.7998 44.9178 28.5698C44.6844 29.3398 44.5678 30.0165 44.5678 30.5998C44.5678 31.0198 44.6494 31.3581 44.8128 31.6148C44.9994 31.8715 45.3028 31.9998 45.7228 31.9998C46.2128 31.9998 46.8078 31.7781 47.5078 31.3348C48.2078 30.8915 48.9194 30.2498 49.6428 29.4098C50.3661 28.5465 51.0078 27.5198 51.5678 26.3298L52.0228 26.6448C51.5328 27.9048 50.8911 29.0248 50.0978 30.0048C49.3044 30.9615 48.4644 31.7081 47.5778 32.2448C46.6911 32.7815 45.8278 33.0498 44.9878 33.0498C44.3811 33.0498 43.8911 32.9331 43.5178 32.6998C43.1678 32.4665 42.9111 32.1515 42.7478 31.7548C42.6078 31.3581 42.5378 30.9265 42.5378 30.4598C42.5378 30.1798 42.5611 29.8998 42.6078 29.6198C42.6544 29.3165 42.7128 29.0131 42.7828 28.7098C42.3628 29.4798 41.9078 30.2031 41.4178 30.8798C40.9278 31.5331 40.4144 32.0581 39.8778 32.4548C39.3411 32.8515 38.7811 33.0498 38.1978 33.0498ZM70.3094 33.0848C69.4928 33.0848 68.8978 32.8281 68.5244 32.3148C68.1511 31.8248 67.9644 31.2298 67.9644 30.5298C67.9644 29.9465 68.0461 29.3631 68.2094 28.7798C68.3961 28.1965 68.5711 27.6248 68.7344 27.0648C68.9211 26.5048 69.0144 26.0031 69.0144 25.5598C69.0144 25.0931 68.9094 24.7665 68.6994 24.5798C68.4894 24.3931 68.2561 24.2998 67.9994 24.2998C67.4161 24.2998 66.7744 24.7548 66.0744 25.6648C65.3978 26.5748 64.5111 27.8581 63.4144 29.5148C63.0411 30.0748 62.7261 30.6465 62.4694 31.2298C62.2128 31.7898 61.9678 32.3031 61.7344 32.7698C61.5478 32.7698 61.3144 32.7465 61.0344 32.6998C60.7544 32.6531 60.4978 32.5715 60.2644 32.4548C60.0544 32.3615 59.9494 32.2331 59.9494 32.0698C59.9494 31.9065 60.0544 31.5215 60.2644 30.9148C60.4978 30.2848 60.7544 29.5615 61.0344 28.7448C61.3378 27.9048 61.5944 27.0648 61.8044 26.2248C62.0378 25.3615 62.1544 24.6265 62.1544 24.0198C62.1544 23.6231 62.0844 23.3081 61.9444 23.0748C61.8278 22.8181 61.6061 22.6898 61.2794 22.6898C60.7661 22.6898 60.1478 23.0048 59.4244 23.6348C58.7011 24.2415 57.9544 25.0465 57.1844 26.0498C56.4144 27.0531 55.6794 28.1615 54.9794 29.3748C54.3028 30.5648 53.7544 31.7548 53.3344 32.9448C53.1244 32.9448 52.8678 32.9098 52.5644 32.8398C52.2611 32.7698 52.0044 32.6765 51.7944 32.5598C51.5611 32.4431 51.4444 32.3265 51.4444 32.2098C51.4444 32.0698 51.5728 31.6615 51.8294 30.9848C52.0628 30.2848 52.3428 29.4565 52.6694 28.4998C52.9728 27.5198 53.2411 26.5281 53.4744 25.5248C53.7311 24.5215 53.8594 23.6348 53.8594 22.8648C53.9994 22.7015 54.2211 22.5381 54.5244 22.3748C54.8278 22.2115 55.1428 22.1298 55.4694 22.1298C55.7961 22.1298 56.0294 22.2115 56.1694 22.3748C56.3328 22.5381 56.4144 22.7598 56.4144 23.0398C56.4144 23.3431 56.3211 23.8681 56.1344 24.6148C55.9711 25.3381 55.7611 26.1431 55.5044 27.0298C55.9711 26.2831 56.4961 25.5248 57.0794 24.7548C57.6861 23.9615 58.3161 23.2381 58.9694 22.5848C59.6228 21.9315 60.2761 21.4065 60.9294 21.0098C61.6061 20.5898 62.2594 20.3798 62.8894 20.3798C63.6128 20.3798 64.1028 20.6481 64.3594 21.1848C64.6394 21.6981 64.7794 22.3165 64.7794 23.0398C64.7794 23.6231 64.7094 24.2415 64.5694 24.8948C64.4528 25.5248 64.3128 26.1198 64.1494 26.6798C63.9861 27.2165 63.8344 27.6481 63.6944 27.9748C64.1844 27.0881 64.7211 26.2365 65.3044 25.4198C65.9111 24.5798 66.5644 23.9031 67.2644 23.3898C67.9644 22.8531 68.7111 22.5848 69.5044 22.5848C70.2511 22.5848 70.7644 22.8065 71.0444 23.2498C71.3478 23.6931 71.4994 24.2181 71.4994 24.8248C71.4994 25.4315 71.3944 26.0965 71.1844 26.8198C70.9744 27.5431 70.7528 28.2431 70.5194 28.9198C70.3094 29.5965 70.2044 30.1798 70.2044 30.6698C70.2044 30.9731 70.2744 31.2531 70.4144 31.5098C70.5778 31.7431 70.8578 31.8598 71.2544 31.8598C71.9078 31.8598 72.5144 31.5681 73.0744 30.9848C73.6578 30.3781 74.1944 29.6548 74.6844 28.8148C75.1744 27.9515 75.5944 27.1231 75.9444 26.3298L76.3644 26.8198C75.9911 27.7998 75.5128 28.7798 74.9294 29.7598C74.3461 30.7165 73.6578 31.5098 72.8644 32.1398C72.0944 32.7698 71.2428 33.0848 70.3094 33.0848ZM80.8264 33.5398C79.4031 33.5398 78.3297 33.1431 77.6064 32.3498C76.9064 31.5798 76.5564 30.6231 76.5564 29.4798C76.5564 28.4298 76.8131 27.3215 77.3264 26.1548C77.8631 24.9881 78.5631 23.8915 79.4264 22.8648C80.3131 21.8381 81.2814 21.0098 82.3314 20.3798C83.3814 19.7265 84.4197 19.3998 85.4464 19.3998C85.9831 19.3998 86.4731 19.5398 86.9164 19.8198C87.3831 20.0998 87.6164 20.6715 87.6164 21.5348C87.6164 22.4215 87.3481 23.2615 86.8114 24.0548C86.2981 24.8248 85.6097 25.5131 84.7464 26.1198C83.9064 26.7265 82.9731 27.2281 81.9464 27.6248C80.9431 27.9981 79.9397 28.2315 78.9364 28.3248C78.8897 28.5581 78.8547 28.7798 78.8314 28.9898C78.8081 29.1998 78.7964 29.3981 78.7964 29.5848C78.7964 29.9348 78.8314 30.2848 78.9014 30.6348C78.9947 30.9848 79.1464 31.3115 79.3564 31.6148C79.5664 31.8948 79.8464 32.1165 80.1964 32.2798C80.5697 32.4431 81.0247 32.5248 81.5614 32.5248C82.5647 32.5248 83.5564 32.2448 84.5364 31.6848C85.5164 31.1015 86.4264 30.3431 87.2664 29.4098C88.1064 28.4765 88.8181 27.4498 89.4014 26.3298L89.8214 26.6448C89.1914 28.0448 88.3864 29.2581 87.4064 30.2848C86.4497 31.3115 85.3997 32.1048 84.2564 32.6648C83.1364 33.2481 81.9931 33.5398 80.8264 33.5398ZM79.1114 27.6598C79.7414 27.4498 80.4531 27.1465 81.2464 26.7498C82.0397 26.3298 82.7981 25.8398 83.5214 25.2798C84.2681 24.7198 84.8747 24.1015 85.3414 23.4248C85.8314 22.7481 86.0764 22.0365 86.0764 21.2898C86.0764 21.0331 86.0297 20.8348 85.9364 20.6948C85.8431 20.5548 85.6447 20.4848 85.3414 20.4848C84.7814 20.4848 84.1864 20.7065 83.5564 21.1498C82.9264 21.5698 82.3197 22.1298 81.7364 22.8298C81.1531 23.5298 80.6281 24.2998 80.1614 25.1398C79.6947 25.9798 79.3447 26.8198 79.1114 27.6598Z" fill="black"/>
<path d="M40.1995 39.9999V34.3999H42.4795C43.0768 34.3999 43.5995 34.5199 44.0475 34.7599C44.5008 34.9946 44.8528 35.3226 45.1035 35.7439C45.3542 36.1652 45.4795 36.6506 45.4795 37.1999C45.4795 37.7492 45.3542 38.2346 45.1035 38.6559C44.8528 39.0772 44.5008 39.4079 44.0475 39.6479C43.5995 39.8826 43.0768 39.9999 42.4795 39.9999H40.1995ZM40.7915 39.4879H42.4475C42.9435 39.4879 43.3728 39.3919 43.7355 39.1999C44.1035 39.0026 44.3888 38.7332 44.5915 38.3919C44.7942 38.0452 44.8955 37.6479 44.8955 37.1999C44.8955 36.7466 44.7942 36.3492 44.5915 36.0079C44.3888 35.6666 44.1035 35.3999 43.7355 35.2079C43.3728 35.0106 42.9435 34.9119 42.4475 34.9119H40.7915V39.4879ZM47.7369 36.9039H50.6969V37.4079H47.7369V36.9039ZM47.8009 39.4879H51.1689V39.9999H47.2089V34.3999H51.0489V34.9119H47.8009V39.4879ZM52.9604 39.9999V34.3999H53.5524V39.4879H56.6884V39.9999H52.9604ZM58.0714 39.9999V34.3999H58.6634V39.9999H58.0714ZM62.4149 39.9999L59.9349 34.3999H60.5749L62.8949 39.6719H62.5429L64.8789 34.3999H65.4789L62.9989 39.9999H62.4149ZM67.2197 36.9039H70.1797V37.4079H67.2197V36.9039ZM67.2837 39.4879H70.6517V39.9999H66.6917V34.3999H70.5317V34.9119H67.2837V39.4879ZM72.4433 39.9999V34.3999H74.5393C75.0139 34.3999 75.4219 34.4772 75.7633 34.6319C76.1046 34.7812 76.3659 34.9999 76.5473 35.2879C76.7339 35.5706 76.8273 35.9146 76.8273 36.3199C76.8273 36.7146 76.7339 37.0559 76.5473 37.3439C76.3659 37.6266 76.1046 37.8452 75.7633 37.9999C75.4219 38.1492 75.0139 38.2239 74.5393 38.2239H72.7713L73.0353 37.9519V39.9999H72.4433ZM76.2673 39.9999L74.8273 37.9679H75.4673L76.9153 39.9999H76.2673ZM73.0353 37.9999L72.7713 37.7199H74.5233C75.0833 37.7199 75.5073 37.5972 75.7953 37.3519C76.0886 37.1066 76.2352 36.7626 76.2352 36.3199C76.2352 35.8719 76.0886 35.5252 75.7953 35.2799C75.5073 35.0346 75.0833 34.9119 74.5233 34.9119H72.7713L73.0353 34.6319V37.9999ZM79.8824 39.9999V37.9199L80.0184 38.2879L77.6424 34.3999H78.2744L80.3624 37.8159H80.0264L82.1144 34.3999H82.7064L80.3304 38.2879L80.4664 37.9199V39.9999H79.8824Z" fill="black"/>
</svg>
